<?xml version="1.0" standalone="no"?><!DOCTYPE svg PUBLIC "-//W3C//DTD SVG 1.1//EN" "http://www.w3.org/Graphics/SVG/1.1/DTD/svg11.dtd"><svg width="16" height="16" viewBox="0 0 16 16" version="1.1" xmlns="http://www.w3.org/2000/svg" xmlns:xlink="http://www.w3.org/1999/xlink"><defs><style type="text/css"><![CDATA[
@font-face { font-family: ifont; src: url("//at.alicdn.com/t/font_1442373896_4754455.eot?#iefix") format("embedded-opentype"), url("//at.alicdn.com/t/font_1442373896_4754455.woff") format("woff"), url("//at.alicdn.com/t/font_1442373896_4754455.ttf") format("truetype"), url("//at.alicdn.com/t/font_1442373896_4754455.svg#ifont") format("svg"); }

]]></style></defs><g class="transform-group"><g transform="scale(0.015625, 0.015625)"><path d="M327.779 484.998c0.177 0.179 0.365 0.396 0.566 0.597l84.626 84.646 29.504-29.533-46.26-46.269 73.837-73.815 9.747 1.052c2.486 0.278 5.03 0.418 7.552 0.418 5.088 0 10.087-0.616 14.937-1.688l-54.358-54.377c-1.094-1.113-2.276-2.068-3.438-3.101 16.774-60.223 1.509-127.518-45.851-174.879-47.014-47.025-113.645-62.388-173.537-46.23l101.49 101.501-26.662 99.394-99.413 26.653-101.482-101.481c-16.178 59.902-0.795 126.543 46.219 173.548 49.383 49.368 120.385 63.877 182.524 43.566M627.64 545.716c-1.67 7.293-2.087 14.885-1.253 22.558l1.094 9.739-6.937 6.916-66.938 66.919-46.249-46.27-29.523 29.516 267.884 267.893c16.496 16.517 38.159 24.764 59.802 24.764 21.645 0 43.289-8.248 59.805-24.764 33.011-33.013 33.011-86.575 0-119.587l-237.685-237.684zM834.48 875.222l-42.493 11.388-34.482-34.483 11.387-42.454 42.493-11.407 34.463 34.483-11.368 42.472zM507.657 577.057l46.287 46.287 52.51-52.509c-2.842-25.618 5.505-52.21 25.102-71.847 19.656-19.636 46.249-27.964 71.868-25.123l229.555-229.575-128.59-128.57-229.535 229.556c2.82 25.597-5.505 52.232-25.142 71.868-19.618 19.616-46.231 27.943-71.838 25.121l-52.51 52.488 46.26 46.249-226.843 226.853-8.277-8.306-43.536 35.078-73.25 115.672 18.681 18.702 115.682-73.238 35.069-43.548-8.326-8.306 226.832-226.853z" fill="#9b9b9b"></path></g></g></svg>