<?xml version="1.0" standalone="no"?><!DOCTYPE svg PUBLIC "-//W3C//DTD SVG 1.1//EN" "http://www.w3.org/Graphics/SVG/1.1/DTD/svg11.dtd"><svg width="16" height="16" viewBox="0 0 16 16" version="1.1" xmlns="http://www.w3.org/2000/svg" xmlns:xlink="http://www.w3.org/1999/xlink"><defs><style type="text/css"><![CDATA[
@font-face { font-family: ifont; src: url("//at.alicdn.com/t/font_1442373896_4754455.eot?#iefix") format("embedded-opentype"), url("//at.alicdn.com/t/font_1442373896_4754455.woff") format("woff"), url("//at.alicdn.com/t/font_1442373896_4754455.ttf") format("truetype"), url("//at.alicdn.com/t/font_1442373896_4754455.svg#ifont") format("svg"); }

]]></style></defs><g class="transform-group"><g transform="scale(0.015625, 0.015625)"><path d="M773.022898 437.411211 773.022898 325.525981c0 0-0.030699-261.026992-261.026992-261.026992-260.989129 0-261.019829 261.026992-261.019829 261.026992l0 111.88523-65.276702 0c-25.744337 0-46.614667 20.87033-46.614667 46.614667l0 428.861488c0 25.744337 20.87033 46.614667 46.614667 46.614667l652.600225 0c25.744337 0 46.614667-20.87033 46.614667-46.614667L884.914268 484.025878c0-25.744337-20.87033-46.614667-46.614667-46.614667L773.022898 437.411211 773.022898 437.411211zM549.284161 725.390042l0 98.912777c0 12.872169-10.434653 23.306822-23.306822 23.306822l-27.956725 0c-12.872169 0-23.306822-10.434653-23.306822-23.306822l0-98.912777c-22.181185-12.923334-37.282115-36.729529-37.282115-64.234977 0-41.222867 33.412994-74.603115 74.565253-74.603115 41.159422 0 74.572416 33.380248 74.572416 74.603115C586.605162 688.661535 571.503209 712.467731 549.284161 725.390042M698.457646 437.378465 325.541331 437.378465 325.541331 326.011029c0.415462-31.240515 11.404748-186.94167 186.454576-186.94167 175.056991 0 186.04423 155.701155 186.461739 186.456622L698.457646 437.378465 698.457646 437.378465zM698.457646 437.378465" fill="#3386c0"></path></g></g></svg>